<?xml version="1.0" encoding="utf-8"?>
<!-- Generator: Adobe Illustrator 27.3.1, SVG Export Plug-In . SVG Version: 6.00 Build 0)  -->
<svg version="1.1" id="Layer_1" xmlns="http://www.w3.org/2000/svg" xmlns:xlink="http://www.w3.org/1999/xlink" x="0px" y="0px"
	 viewBox="0 0 597.1 200.3" style="enable-background:new 0 0 597.1 200.3;" xml:space="preserve">
<style type="text/css">
	.st0{fill:#1718FF;}
</style>
<g>
	<g>
		<g>
			<g>
				<path class="st0" d="M10.7,53.8c0-2.8,1-5.2,3-7.2l22.8-22.8c2-2,4.4-3,7.2-3H112c13.1,0,24,1.9,32.6,5.7
					c8.7,3.8,15.1,8.7,19.1,14.8c4.1,6.1,6.1,12.7,6.1,19.7c0,3.3-0.7,6.9-2.2,10.6c-1.5,3.7-3.8,7.1-7,10c-3.2,2.9-7.2,4.9-12,5.8
					c7.1,1.9,12.4,5.3,15.9,10.3c3.5,5,5.3,10.1,5.3,15.3c0,7.1-2,13.6-6.1,19.6c-4.1,6-10.4,10.9-19.1,14.6
					c-8.7,3.7-19.6,5.6-32.6,5.6H43.7c-2.8,0-5.2-1-7.2-3l-22.8-22.8c-2-2-3-4.4-3-7.2V53.8z M132.7,69.8c3.3-2,4.9-5.1,4.9-9.4
					c0-2.8-0.6-4.9-1.9-6.4c-1.3-1.5-3.6-2.6-6.9-3.3c-3.3-0.7-8.3-1.1-14.8-1.1H49.1c-1.6,0-3,0.6-4.3,1.7
					c-1.3,1.1-1.9,2.3-1.9,3.5v12c0,1.5,0.5,2.8,1.4,4.1c0.9,1.3,2,1.9,3.2,1.9H114C123.2,72.8,129.5,71.8,132.7,69.8z M44.7,122.7
					c1.2,0.9,2.7,1.4,4.4,1.4H116c8.4,0,14.1-0.9,17.1-2.8c3-1.9,4.5-4.9,4.5-9c0-4.1-1.5-7.1-4.5-8.8c-3-1.7-8.7-2.6-17.1-2.6H49.1
					c-1.9,0-3.4,0.4-4.5,1.3c-1.1,0.9-1.7,2.1-1.7,3.7v13C42.9,120.5,43.5,121.8,44.7,122.7z"/>
				<path class="st0" d="M224.4,20.8h46.3c2.8,0,5.2,1,7.2,3l13,13c0.8,0.8,1.7,1.2,2.8,1.2c1.1,0,2-0.4,2.8-1.2l13-13
					c2-2,4.4-3,7.2-3H363c2.8,0,5.2,1,7.2,3L399,52.6c2,2,3,4.4,3,7.2l0.2,93.1H370V53.8c0-1.5-0.3-2.5-1-3.2c-0.7-0.7-1.7-1-3.2-1
					h-52.1c-1.5,0-2.5,0.3-3.2,1c-0.7,0.7-1,1.7-1,3.2l0.2,99.1h-32.2l0.2-99.1c0-1.5-0.3-2.5-1-3.2c-0.7-0.7-1.7-1-3.2-1h-51.9
					c-1.5,0-2.5,0.3-3.2,1c-0.7,0.7-1,1.7-1,3.2V153h-32.2l0.2-93.1c0-2.8,1-5.2,3-7.2l28.8-28.8C219.2,21.8,221.6,20.8,224.4,20.8z
					"/>
				<path class="st0" d="M581.9,123.1L553.1,152c-2,2-4.4,3-7.2,3h-89.3c-2.8,0-5.2-1-7.2-3l-28.8-28.8c-2-2-3-4.4-3-7.2V57.8
					c0-2.8,1-5.2,3-7.2l28.8-28.8c2-2,4.4-3,7.2-3l89.3,0.2c2.8,0,5.2,1,7.2,3l28.8,28.6c2,2,3,4.4,3,7.2v15.6h-32.2V51.8
					c0-1.5-0.3-2.5-1-3.2c-0.7-0.7-1.7-1-3.2-1h-94.7c-1.5,0-2.5,0.3-3.2,1c-0.7,0.7-1,1.7-1,3.2v70.1c0,1.5,0.3,2.5,1,3.2
					c0.7,0.7,1.7,1,3.2,1h94.7c1.5,0,2.5-0.3,3.2-1c0.7-0.7,1-1.7,1-3.2v-21.6h32.2v15.6C584.9,118.7,583.9,121.1,581.9,123.1z"/>
			</g>
		</g>
		<g>
			<g>
				<path class="st0" d="M34.7,178.5c0,3.6-1.5,5.2-4.8,5.2H12.9v-19.2h16.6c3.4,0,4.8,1.5,4.8,4.9c0,2.5-0.7,3.8-2.4,4.3
					C33.9,174.1,34.7,175.5,34.7,178.5z M18.8,167.5v4.9h7.6c1.5,0,2-0.4,2-1.9v-1c0-1.6-0.5-1.9-2-1.9H18.8z M28.8,177.5
					c0-1.6-0.5-2.2-2.1-2.2h-8v5.5h8c1.5,0,2.1-0.5,2.1-2.2V177.5z"/>
				<path class="st0" d="M61.1,183.7H54l-5.1-7.6h-4.6v7.6h-5.9v-19.2h16.4c3.3,0,4.8,1.6,4.8,5.8c0,3.7-1.2,5.4-3.8,5.7L61.1,183.7
					z M44.4,167.5v5.7h7.4c1.5,0,2-0.6,2-2.2v-1.4c0-1.6-0.5-2.2-2-2.2H44.4z"/>
				<path class="st0" d="M69.9,183.7H64v-19.2h5.9V183.7z"/>
				<path class="st0" d="M80.3,164.6v16.2h12.6v2.9H74.4v-19.2H80.3z"/>
				<path class="st0" d="M101.7,164.6v16.2h12.6v2.9H95.8v-19.2H101.7z"/>
				<path class="st0" d="M123.2,183.7h-5.9v-19.2h5.9V183.7z"/>
				<path class="st0" d="M149.3,183.7h-6.5l-2.1-4.1h-9.4l-2.1,4.1h-3.3l9.8-19.2h3.8L149.3,183.7z M136,170.3l-3.2,6.4h6.4
					L136,170.3z"/>
				<path class="st0" d="M169.7,176.9v-12.3h3v19.2h-4.5l-13.1-12.3v12.3h-3v-19.2h4.5L169.7,176.9z"/>
				<path class="st0" d="M175.6,164.6h20.9v2.9H189v16.2h-5.9v-16.2h-7.5V164.6z"/>
				<path class="st0" d="M218.7,177.9l6.8-13.4h6.1v19.2h-5.9v-12.8l-6.8,12.8h-3.8l-6.8-12.8v12.8h-3v-19.2h6.6L218.7,177.9z"/>
				<path class="st0" d="M255.8,164.6v2.9H242v4.9h12.9v2.9H242v5.5h13.7v2.9h-19.6v-19.2H255.8z"/>
				<path class="st0" d="M272.7,177.9l6.8-13.4h6.1v19.2h-5.9v-12.8l-6.8,12.8h-3.8l-6.8-12.8v12.8h-3v-19.2h6.6L272.7,177.9z"/>
				<path class="st0" d="M297.1,184c-6.1,0-7.6-2.3-7.6-9.8c0-7.6,1.5-9.8,7.6-9.8h7.7c6.1,0,7.6,2.2,7.6,9.8c0,7.6-1.6,9.8-7.6,9.8
					H297.1z M303.6,181c2.2,0,3-1,3-3.6v-6.7c0-2.6-0.8-3.6-3-3.6h-5.3c-2.2,0-3,1-3,3.6v6.7c0,2.6,0.7,3.6,3,3.6H303.6z"/>
				<path class="st0" d="M339,183.7h-7.1l-5.1-7.6h-4.6v7.6h-5.9v-19.2h16.4c3.3,0,4.8,1.6,4.8,5.8c0,3.7-1.2,5.4-3.8,5.7L339,183.7
					z M322.3,167.5v5.7h7.4c1.5,0,2-0.6,2-2.2v-1.4c0-1.6-0.5-2.2-2-2.2H322.3z"/>
				<path class="st0" d="M352.5,172.2l6-7.7h3.6l-8.5,10.9v8.3h-5.9v-8.3l-8.5-10.9h7.3L352.5,172.2z"/>
				<path class="st0" d="M388.7,183.7h-11.1c-6.1,0-7.6-2.2-7.6-9.6s1.6-9.6,7.6-9.6h11.1v2.9h-9.9c-2.2,0-3,1-3,3.6v6.2
					c0,2.6,0.7,3.6,3,3.6h9.9V183.7z"/>
				<path class="st0" d="M399,184c-6.1,0-7.6-2.3-7.6-9.8c0-7.6,1.5-9.8,7.6-9.8h7.7c6.1,0,7.6,2.2,7.6,9.8c0,7.6-1.6,9.8-7.6,9.8
					H399z M405.5,181c2.2,0,3-1,3-3.6v-6.7c0-2.6-0.8-3.6-3-3.6h-5.3c-2.2,0-3,1-3,3.6v6.7c0,2.6,0.7,3.6,3,3.6H405.5z"/>
				<path class="st0" d="M431.6,177.9l6.8-13.4h6.1v19.2h-5.9v-12.8l-6.8,12.8H428l-6.8-12.8v12.8h-3v-19.2h6.6L431.6,177.9z"/>
				<path class="st0" d="M449,164.6h16.8c3.3,0,4.8,1.6,4.8,5.8c0,4.2-1.5,5.8-4.8,5.8h-10.9v7.6H449V164.6z M464.8,169.6
					c0-1.6-0.5-2.2-2-2.2h-7.9v5.7h7.9c1.5,0,2-0.6,2-2.2V169.6z"/>
				<path class="st0" d="M481.4,184c-5.7,0-7.6-1.9-7.6-7.9v-11.6h5.9v13.1c0,2.5,0.8,3.4,2.9,3.4h4.4c2.2,0,2.9-0.9,2.9-3.4v-13.1
					h5.9v11.6c0,5.9-1.9,7.9-7.6,7.9H481.4z"/>
				<path class="st0" d="M498.7,164.6h20.9v2.9h-7.5v16.2h-5.9v-16.2h-7.5V164.6z"/>
				<path class="st0" d="M542.1,164.6v2.9h-13.7v4.9h12.9v2.9h-12.9v5.5h13.7v2.9h-19.6v-19.2H542.1z"/>
				<path class="st0" d="M568.3,183.7h-7.1l-5.1-7.6h-4.6v7.6h-5.9v-19.2h16.4c3.3,0,4.8,1.6,4.8,5.8c0,3.7-1.2,5.4-3.8,5.7
					L568.3,183.7z M551.6,167.5v5.7h7.4c1.5,0,2-0.6,2-2.2v-1.4c0-1.6-0.5-2.2-2-2.2H551.6z"/>
				<path class="st0" d="M570.6,183.7v-2.9h12.5c1,0,1.4-0.3,1.4-1c0-0.7-0.4-1-2-1.8c-11.1-4.7-12.3-5.5-12.3-8.5
					c0-3.4,1.9-4.9,6.2-4.9h12.4v2.9h-11.4c-1,0-1.4,0.3-1.4,1c0,0.6,0.4,1,2,1.8c11.1,4.7,12.3,5.5,12.3,8.5c0,3.4-1.9,4.9-6.2,4.9
					H570.6z"/>
			</g>
		</g>
	</g>
</g>
<rect x="-204.7" y="-505.6" class="st0" width="85" height="85"/>
</svg>
